<?xml version="1.0" encoding="UTF-8"?>
<svg id="Layer_1" data-name="Layer 1" xmlns="http://www.w3.org/2000/svg" viewBox="0 0 1562.06 1875.98">
  <defs>
    <style>
      .cls-1 {
        fill: #fff;
      }
    </style>
  </defs>
  <g>
    <path class="cls-1" d="M457.99,344.07h120v-56.11h-56.11v24.01h-63.89v-21.6h-24.01v-123.86h24.01V48.01h-24.01v-24.01h-104.12v80.12h24.01v63.86h-72.02l.03,24.01-24.03-.03.03,24.03-24.03-.03.03,24.01h-48.01l.03,24.01h-24.03v104.09l24.03-.03-.03,24.03,24.03-.03-.03,24.03,24.01-.03v87.87h-24.01v56.11h24.01v63.89h-24.01v119.97h-24.01l.03,24.01h-24.03v47.98h-24.01v47.98h-24.01l.03,24.03-24.01-.03v47.98h-48.01v24.03l-24.01-.03v56.11l24.03-.03-.03,24.03,24.01-.03v24.03l24.01-.03v24.01h56.11v-32.1h-24.01v-135.88l24.01.03-.03-24.03,39.91.03v47.98l24.03-.03-.03,24.03,24.01-.03-.03,24.01h24.03l-.03,24.01,24.03-.03-.03,24.03h32.13v-104.54l-24.06-1.4.05-38.06h24.01v-47.98h47.98v-24.01l24.03.03-.03-24.03,24.01.03-.03-24.01h24.03l-.03-24.01,24.03.03-.03-24.03,24.03.03v-56.11h-24.01v-47.98h-24.03l.03-24.01h-24.01v-47.98h-24.01v-87.87h24.01v-45.6h14.4l-.03-26.44,9.66.03-.05-24.01,24.03.03v-24.01ZM217.99,359.95v-63.86h24.01l-.03-24.01h39.89v63.89l-24.01-.03.03,24.03-39.89-.03ZM401.86,680.04l.03,39.89-24.03-.03.03,24.03-24.01-.03.03,24.01-24.03-.03.03,24.03-24.03-.03v48.01l-24.01-.03.03,23.95-7.86.08c-2.75.03-5.51.03-8.28.03-4.74,0-9.5-.03-14.27-.05-4.74-.05-9.48-.08-14.19-.08h-3.44c0,1.67,0,3.36.03,5.03,0,3.73.03,7.46,0,11.17l-.05,7.89h-39.86v-39.81l7.86-.08c1.35-.03,2.7-.03,4.08-.03,2.41,0,4.82.03,7.25.03,1.61.03,3.23.03,4.84.05v-5.03c-.03-3.71-.05-7.44-.03-11.14l.05-7.89,23.98.03-.03-24.03,24.01.03v-47.98h24.01v-48.01l24.01.03v-24.01h87.87Z"/>
    <path class="cls-1" d="M457.99,344.07h120v-56.11h-56.11v24.01h-63.89v-21.6h-24.01v-123.86h24.01V48.01h-24.01v-24.01h-104.12v80.12h24.01v63.86h-72.02l.03,24.01-24.03-.03.03,24.03-24.03-.03.03,24.01h-48.01l.03,24.01h-24.03v104.09l24.03-.03-.03,24.03,24.03-.03-.03,24.03,24.01-.03v87.87h-24.01v56.11h24.01v63.89h-24.01v119.97h-24.01l.03,24.01h-24.03v47.98h-24.01v47.98h-24.01l.03,24.03-24.01-.03v47.98h-48.01v24.03l-24.01-.03v56.11l24.03-.03-.03,24.03,24.01-.03v24.03l24.01-.03v24.01h56.11v-32.1h-24.01v-135.88l24.01.03-.03-24.03,39.91.03v47.98l24.03-.03-.03,24.03,24.01-.03-.03,24.01h24.03l-.03,24.01,24.03-.03-.03,24.03h32.13v-104.54l-24.06-1.4.05-38.06h24.01v-47.98h47.98v-24.01l24.03.03-.03-24.03,24.01.03-.03-24.01h24.03l-.03-24.01,24.03.03-.03-24.03,24.03.03v-56.11h-24.01v-47.98h-24.03l.03-24.01h-24.01v-47.98h-24.01v-87.87h24.01v-45.6h14.4l-.03-26.44,9.66.03-.05-24.01,24.03.03v-24.01ZM217.99,359.95v-63.86h24.01l-.03-24.01h39.89v63.89l-24.01-.03.03,24.03-39.89-.03ZM401.86,680.04l.03,39.89-24.03-.03.03,24.03-24.01-.03.03,24.01-24.03-.03.03,24.03-24.03-.03v48.01l-24.01-.03.03,23.95-7.86.08c-2.75.03-5.51.03-8.28.03-4.74,0-9.5-.03-14.27-.05-4.74-.05-9.48-.08-14.19-.08h-3.44c0,1.67,0,3.36.03,5.03,0,3.73.03,7.46,0,11.17l-.05,7.89h-39.86v-39.81l7.86-.08c1.35-.03,2.7-.03,4.08-.03,2.41,0,4.82.03,7.25.03,1.61.03,3.23.03,4.84.05v-5.03c-.03-3.71-.05-7.44-.03-11.14l.05-7.89,23.98.03-.03-24.03,24.01.03v-47.98h24.01v-48.01l24.01.03v-24.01h87.87Z"/>
    <path class="cls-1" d="M986.03,416.06v-23.98h71.99v-32.13h-96v-111.85h24.01v-72.02l23.98.03v-24.03l24.01.03v-80.12h-24.01V0h-80.11l.03,24.03-24.03-.03.03,24.01h-24.03v32.1h24.01v63.86h-48.01v24.01h-47.98v24.01l-24.01-.03.03,24.03-24.03-.03.03,24.03-24.03-.03.03,24.01-24.03-.03.03,24.03-24.01-.03v48.01h-24.01v32.1h47.98v24.01h48.01v87.87h-24.01v80.09h24.01v63.89h-24.01v32.1h24.01v111.88l-24.01-.03.03,24.03-24.03-.03.03,24.03-24.03-.03.03,24.01h-24.01v47.98h-24.01v47.98h-24.01l.03,24.03-24.03-.03v24.01h-47.98v80.09h47.98v24.01h104.12v-32.1h-47.98v-87.9l24.01.03-.03-24.01h63.89v24.01h56.14v-8.13h-24.01v-111.88l24.01.03v-24.01h71.99v-24.01h72.02v-24.01h48.01v-23.98h47.98v-104.12l-24.01.03v-24.03l-24.01.03.03-24.01-24.03.03.03-24.03h-24.01v-47.98h-24.01v-111.88h72.02ZM929.9,680.04l.03,39.81-7.86.08c-2.78.03-5.53.03-8.28.03-4.76,0-9.5-.03-14.27-.05-4.71-.05-9.45-.08-14.16-.08h-3.49c.03,1.67.03,3.36.03,5.03.03,3.73.05,7.46.03,11.17l-.05,7.89h-39.86v-39.81l7.86-.08c1.32-.03,2.67-.03,4-.03,2.44,0,4.87.03,7.3.05,1.64,0,3.26,0,4.87.03v-4.82c-.03-3.78-.05-7.57-.03-11.35l.05-7.86h63.84Z"/>
    <path class="cls-1" d="M986.03,416.06v-23.98h71.99v-32.13h-96v-111.85h24.01v-72.02l23.98.03v-24.03l24.01.03v-80.12h-24.01V0h-80.11l.03,24.03-24.03-.03.03,24.01h-24.03v32.1h24.01v63.86h-48.01v24.01h-47.98v24.01l-24.01-.03.03,24.03-24.03-.03.03,24.03-24.03-.03.03,24.01-24.03-.03.03,24.03-24.01-.03v48.01h-24.01v32.1h47.98v24.01h48.01v87.87h-24.01v80.09h24.01v63.89h-24.01v32.1h24.01v111.88l-24.01-.03.03,24.03-24.03-.03.03,24.03-24.03-.03.03,24.01h-24.01v47.98h-24.01v47.98h-24.01l.03,24.03-24.03-.03v24.01h-47.98v80.09h47.98v24.01h104.12v-32.1h-47.98v-87.9l24.01.03-.03-24.01h63.89v42.76h56.14v-26.88h-24.01v-111.88l24.01.03v-24.01h71.99v-24.01h72.02v-24.01h48.01v-23.98h47.98v-104.12l-24.01.03v-24.03l-24.01.03.03-24.01-24.03.03.03-24.03h-24.01v-47.98h-24.01v-111.88h72.02ZM929.9,680.04l.03,39.81-7.86.08c-2.78.03-5.53.03-8.28.03-4.76,0-9.5-.03-14.27-.05-4.71-.05-9.45-.08-14.16-.08h-3.49c.03,1.67.03,3.36.03,5.03.03,3.73.05,7.46.03,11.17l-.05,7.89h-39.86v-39.81l7.86-.08c1.32-.03,2.67-.03,4-.03,2.44,0,4.87.03,7.3.05,1.64,0,3.26,0,4.87.03v-4.82c-.03-3.78-.05-7.57-.03-11.35l.05-7.86h63.84Z"/>
    <path class="cls-1" d="M1562.06,440.06v-32.1h-24.03l.03-24.01h-32.13v24.01h-63.89v-167.98h-23.98v-63.86h23.98v-80.12h-23.98v-47.98h-24.03l.03-24.01h-56.14l.03,24.01-24.03-.03.03,24.03-24.01-.03v32.13h23.98v63.86h-24.01l.03,24.01-24.01-.03v24.03l-24.01-.03.03,24.03-24.03-.03v24.01h-48.01v80.09h24.01v47.98h24.03l-.03,24.03,24.01-.03v63.89l-24.01-.03.03,24.03-24.03-.03v56.11h48.01v143.98h24.01v87.87h-120v56.11h23.98v87.87h-24.01l.03,24.03-24.03-.03.03,24.01-24.01-.03.03,24.03-24.03-.03v32.13h48.01v23.98h47.98v24.01h80.14v-32.1h-48.01v-48.01l-24.01.03v-39.91l24.01.03-.03-24.03,24.03.03-.03-24.01h24.03l-.03-24.01,24.03.03-.03-24.03,24.01.03v-48.01l24.03.03-.03-24.01h96.02v-24.01h47.98v-104.09h-24.01v-47.98h-24.01l.03-24.01h-24.01v-159.86h168.01ZM1294.72,367.15h-39.89v-35.99l-24.01.03v-39.91l24.01.03-.03-12.02h39.91v87.87Z"/>
    <path class="cls-1" d="M1562.06,440.06v-32.1h-24.03l.03-24.01h-32.13v24.01h-63.89v-167.98h-23.98v-63.86h23.98v-80.12h-23.98v-47.98h-24.03l.03-24.01h-56.14l.03,24.01-24.03-.03.03,24.03-24.01-.03v32.13h23.98v63.86h-24.01l.03,24.01-24.01-.03v24.03l-24.01-.03.03,24.03-24.03-.03v24.01h-48.01v80.09h24.01v47.98h24.03l-.03,24.03,24.01-.03v63.89l-24.01-.03.03,24.03-24.03-.03v56.11h48.01v143.98h24.01v87.87h-120v56.11h23.98v87.87h-24.01l.03,24.03-24.03-.03.03,24.01-24.01-.03.03,24.03-24.03-.03v32.13h48.01v23.98h47.98v24.01h80.14v-32.1h-48.01v-48.01l-24.01.03v-39.91l24.01.03-.03-24.03,24.03.03-.03-24.01h24.03l-.03-24.01,24.03.03-.03-24.03,24.01.03v-48.01l24.03.03-.03-24.01h96.02v-24.01h47.98v-104.09h-24.01v-47.98h-24.01l.03-24.01h-24.01v-159.86h168.01ZM1294.72,367.15h-39.89v-35.99l-24.01.03v-39.91l24.01.03-.03-12.02h39.91v87.87Z"/>
  </g>
  <g>
    <path class="cls-1" d="M204.3,1500.39v-7.57h7.57v-7.57h7.57v37.83H0v-15.13h7.57v-7.57h7.57v-7.57h7.57v-15.13h7.57v-7.57h7.57v-7.57h7.57v-15.13h7.57v-7.57h7.57v-7.57h7.57v-7.57h7.57v-15.13h7.57v-7.57h7.57v-7.57h7.57v-7.57h7.57v-15.13h7.57v-7.57h7.57v-7.57h7.57v-7.57h7.57v-15.13h7.57v-7.57h7.57v-7.57h7.57v-7.57h7.57v-15.13h7.57v-7.57h7.57v-7.57h7.57v-7.57h7.57v-15.13h7.57v-7.57h7.57v-7.57h7.57v-7.57h-105.93v7.57h-15.13v7.57h-15.13v15.13h-7.57v7.57h-7.57v-22.7h7.57v-22.7h196.73v7.57h-7.57v15.13h-7.57v7.57h-7.57v7.57h-7.57v7.57h-7.57v15.13h-7.57v7.57h-7.57v7.57h-7.57v7.57h-7.57v15.13h-7.57v7.57h-7.57v7.57h-7.57v7.57h-7.57v15.13h-7.57v7.57h-7.57v7.57h-7.57v15.13h-7.57v7.57h-7.57v7.57h-7.57v7.57h-7.57v15.13h-7.57v7.57h-7.57v7.57h-7.57v7.57h-7.57v15.13h-7.57v7.57h-7.57v7.57h-7.57v7.57h-7.57v15.13h-7.57v7.57h128.63v-7.57h15.13v-7.57h7.57ZM227,1485.25h-7.57v-15.13h7.57v15.13Z"/>
    <path class="cls-1" d="M401.02,1500.39v7.57h-7.57v7.57h-22.7v7.57h-75.66v-7.57h-7.57v-7.57h-7.57v-7.57h-7.57v-7.57h-7.57v-15.13h-7.57v-68.1h7.57v-22.7h7.57v-15.13h7.57v-15.13h7.57v-7.57h7.57v-7.57h7.57v-7.57h7.57v-7.57h7.57v-7.57h7.57v-7.57h22.7v-7.57h68.1v7.57h15.13v7.57h7.57v7.57h7.57v15.13h7.57v15.13h7.57v45.4h-7.57v30.27h-7.57v22.7h-7.57v15.13h-7.57v7.57h-7.57v7.57h-7.57v7.57h-7.57v7.57h-7.57ZM302.66,1500.39h7.57v7.57h7.57v7.57h37.83v-7.57h15.13v-7.57h7.57v-7.57h7.57v-15.13h7.57v-15.13h7.57v-15.13h7.57v-30.27h7.57v-83.23h-7.57v-15.13h-7.57v-7.57h-37.83v7.57h-15.13v7.57h-7.57v7.57h-7.57v15.13h-7.57v15.13h-7.57v15.13h-7.57v22.7h-7.57v45.4h-7.57v22.7h7.57v30.27Z"/>
    <path class="cls-1" d="M504.01,1326.36h-7.57v-15.13h37.83v-7.57h22.7v15.13h-7.57v30.27h-7.57v15.13h7.57v15.13h-7.57v15.13h-7.57v30.27h-7.57v37.83h-7.57v52.97h7.57v7.57h-75.66v-7.57h7.57v-7.57h7.57v-7.57h7.57v-22.7h7.57v-37.83h7.57v-37.83h7.57v-30.27h7.57v-45.4ZM556.98,1364.19h-7.57v-15.13h7.57v15.13ZM564.54,1341.49v7.57h-7.57v-7.57h7.57ZM572.11,1326.36v7.57h-7.57v-7.57h7.57ZM579.68,1318.79v7.57h-7.57v-7.57h7.57ZM632.64,1326.36h-7.57v-15.13h-30.27v-7.57h52.97v7.57h7.57v7.57h7.57v15.13h7.57v52.97h-7.57v37.83h-7.57v30.27h-7.57v60.53h7.57v7.57h-75.66v-7.57h7.57v-7.57h7.57v-7.57h7.57v-30.27h7.57v-30.27h7.57v-37.83h7.57v-37.83h7.57v-37.83ZM579.68,1318.79v-7.57h15.13v7.57h-15.13Z"/>
    <path class="cls-1" d="M839.04,1485.25v-7.57h15.13v7.57h-7.56v7.57h-7.57v7.57h-7.57v7.57h-7.56v7.57h-22.7v7.57h-75.67v-7.57h-7.57v-7.57h-15.13v-15.13h-7.57v-15.13h-7.57v-68.1h7.57v-22.7h7.57v-15.13h7.57v-15.13h7.57v-7.57h7.57v-15.13h7.57v-7.57h15.13v-7.57h7.57v-7.57h15.13v-7.57h68.1v7.57h15.13v7.57h7.57v7.57h7.57v15.13h7.56v75.67h-143.76v60.53h7.57v15.13h15.13v7.57h60.53v-7.57h15.13v-7.57h7.57ZM740.67,1379.32v22.7h-7.57v7.57h15.13v-7.57h37.83v-7.57h30.27v-7.57h22.7v-52.97h-7.57v-15.13h-7.56v-7.57h-37.84v7.57h-7.56v7.57h-7.57v7.57h-7.57v15.13h-7.57v7.57h-7.57v22.7h-7.57ZM861.74,1477.69h-7.57v-15.13h7.57v15.13ZM869.31,1454.99v7.57h-7.57v-7.57h7.57Z"/>
    <path class="cls-1" d="M1016.85,1280.96v-37.83h7.57v-7.57h-45.4v7.57h-22.7v7.57h-7.57v7.57h-7.57v7.57h-7.57v15.13h-7.57v-30.27h7.57v-22.7h227v7.57h-7.57v30.27h-7.57v15.13h-7.57v-30.27h-7.57v-7.57h-15.13v-7.57h-52.97v37.83h-7.57v37.83h-7.57v30.27h-7.57v37.83h-7.57v37.83h-7.57v37.83h-7.57v30.27h-7.57v15.13h7.57v15.13h7.57v7.57h-75.66v-7.57h7.57v-7.57h7.57v-15.13h7.57v-37.83h7.57v-30.27h7.57v-37.83h7.57v-37.83h7.57v-30.27h7.57v-37.83h7.57Z"/>
    <path class="cls-1" d="M1129.08,1318.79v-15.13h75.66v7.57h-7.57v7.57h-7.57v128.63h7.57v15.13h-7.57v15.13h-7.57v15.13h-7.57v15.13h-7.57v15.13h-7.57v-7.57h-7.57v-98.36h-7.57v-83.23h-7.57v-15.13h-7.57ZM1204.75,1447.42h-7.57v-15.13h7.57v15.13ZM1212.32,1432.29h-7.57v-15.13h7.57v15.13ZM1219.88,1417.16h-7.57v-15.13h7.57v15.13ZM1227.45,1402.02h-7.57v-15.13h7.57v15.13ZM1348.52,1341.49v-37.83h37.83v7.57h-7.57v7.57h-7.57v7.57h-7.57v7.57h-7.57v15.13h-7.57v15.13h-7.57v15.13h-7.57v15.13h-7.57v15.13h-7.57v15.13h-7.57v15.13h-7.57v15.13h-7.57v15.13h-7.57v15.13h-7.57v15.13h-7.57v15.13h-7.57v7.57h-7.57v-22.7h-7.57v-105.93h-7.57v-22.7h-7.57v-15.13h7.57v-30.27h-7.57v-15.13h-7.57v-7.57h75.67v7.57h-7.57v7.57h-7.57v105.93h7.57v7.57h7.57v-15.13h7.57v-15.13h7.57v-15.13h7.57v-15.13h7.57v-15.13h7.57v-15.13h7.57ZM1235.02,1386.89h-7.57v-15.13h7.57v15.13Z"/>
    <path class="cls-1" d="M1501.52,1500.39v7.57h-7.57v7.57h-22.7v7.57h-75.66v-7.57h-7.57v-7.57h-7.57v-7.57h-7.57v-7.57h-7.57v-15.13h-7.57v-68.1h7.57v-22.7h7.57v-15.13h7.57v-15.13h7.57v-7.57h7.57v-7.57h7.57v-7.57h7.57v-7.57h7.57v-7.57h7.57v-7.57h22.7v-7.57h68.1v7.57h15.13v7.57h7.57v7.57h7.57v15.13h7.57v15.13h7.57v45.4h-7.57v30.27h-7.57v22.7h-7.57v15.13h-7.57v7.57h-7.57v7.57h-7.57v7.57h-7.57v7.57h-7.57ZM1403.16,1500.39h7.57v7.57h7.57v7.57h37.83v-7.57h15.13v-7.57h7.57v-7.57h7.57v-15.13h7.57v-15.13h7.57v-15.13h7.57v-30.27h7.57v-83.23h-7.57v-15.13h-7.57v-7.57h-37.83v7.57h-15.13v7.57h-7.57v7.57h-7.57v15.13h-7.57v15.13h-7.57v15.13h-7.57v22.7h-7.57v45.4h-7.57v22.7h7.57v30.27Z"/>
    <path class="cls-1" d="M309.94,1657.51h-5.75v-11.5h28.75v-5.75h17.25v11.5h-5.75v23h-5.75v11.5h5.75v11.5h-5.75v11.5h-5.75v23h-5.75v28.74h-5.75v40.24h5.75v5.75h-57.49v-5.75h5.75v-5.75h5.75v-5.75h5.75v-17.24h5.75v-28.75h5.75v-28.74h5.75v-23h5.75v-34.49ZM390.43,1646.02v-5.75h34.49v5.75h-5.75v23h-5.75v5.75h-5.75v-5.75h-5.75v-5.75h-34.49v5.75h-5.75v5.75h-5.75v5.75h-5.75v5.75h-5.75v-11.5h5.75v-5.75h5.75v-5.75h5.75v-5.75h5.75v-5.75h11.5v-5.75h11.5Z"/>
    <path class="cls-1" d="M434.5,1657.51h-5.75v-11.5h28.75v-5.75h17.25v11.5h-5.75v28.75h-5.75v22.99h-5.75v28.75h-5.75v28.74h-5.75v28.74h5.75v11.5h23v5.75h-40.24v-5.75h-11.5v-11.5h-5.75v-45.99h5.75v-28.74h5.75v-23h5.75v-34.49ZM474.75,1801.24v-5.75h11.5v5.75h-11.5ZM491.99,1789.74v5.75h-5.75v-5.75h5.75ZM497.74,1783.99v5.75h-5.75v-5.75h5.75ZM503.49,1783.99h-5.75v-11.5h5.75v11.5ZM532.24,1657.51h-5.75v-11.5h28.75v-5.75h17.25v11.5h-5.75v23h-5.75v28.74h-5.75v28.75h-5.75v22.99h-5.75v40.24h5.75v5.75h-28.75v5.75h-17.25v-11.5h5.75v-22.99h-5.75v-5.75h11.5v-5.75h-5.75v-11.5h5.75v-11.5h5.75v-22.99h5.75v-28.74h5.75v-28.75Z"/>
    <path class="cls-1" d="M598.03,1657.51h-5.75v-11.5h28.75v-5.75h17.25v11.5h-5.75v23h-5.75v11.5h5.75v11.5h-5.75v11.5h-5.75v23h-5.75v28.74h-5.75v40.24h5.75v5.75h-57.49v-5.75h5.75v-5.75h5.75v-5.75h5.75v-17.24h5.75v-28.75h5.75v-28.74h5.75v-23h5.75v-34.49ZM638.27,1686.26h-5.75v-11.5h5.75v11.5ZM644.02,1669.01v5.75h-5.75v-5.75h5.75ZM649.77,1657.51v5.75h-5.75v-5.75h5.75ZM655.52,1651.76v5.75h-5.75v-5.75h5.75ZM695.76,1657.51h-5.75v-11.5h-23v-5.75h40.24v5.75h5.75v5.75h5.75v11.5h5.75v40.24h-5.75v28.75h-5.75v22.99h-5.75v45.99h5.75v5.75h-57.49v-5.75h5.75v-5.75h5.75v-5.75h5.75v-22.99h5.75v-23h5.75v-28.74h5.75v-28.74h5.75v-28.75ZM655.52,1651.76v-5.75h11.5v5.75h-11.5Z"/>
    <path class="cls-1" d="M760.6,1657.51h-5.75v-11.5h28.75v-5.75h17.24v11.5h-5.75v23h-5.75v11.5h5.75v11.5h-5.75v11.5h-5.75v23h-5.75v28.74h-5.75v40.24h5.75v5.75h-57.49v-5.75h5.75v-5.75h5.75v-5.75h5.75v-17.24h5.75v-28.75h5.75v-28.74h5.75v-23h5.75v-34.49ZM800.84,1686.26h-5.75v-11.5h5.75v11.5ZM806.59,1669.01v5.75h-5.75v-5.75h5.75ZM812.34,1657.51v5.75h-5.75v-5.75h5.75ZM818.08,1651.76v5.75h-5.75v-5.75h5.75ZM858.33,1657.51h-5.75v-11.5h-23v-5.75h40.24v5.75h5.75v5.75h5.75v11.5h5.75v40.24h-5.75v28.75h-5.75v22.99h-5.75v45.99h5.75v5.75h-57.49v-5.75h5.75v-5.75h5.75v-5.75h5.75v-22.99h5.75v-23h5.75v-28.74h5.75v-28.74h5.75v-28.75ZM818.08,1651.76v-5.75h11.5v5.75h-11.5Z"/>
    <path class="cls-1" d="M923.16,1657.51h-5.75v-11.5h28.75v-5.75h17.24v11.5h-5.75v23h-5.75v28.74h-5.75v28.75h-5.75v28.74h-5.75v40.24h5.75v5.75h-57.49v-5.75h5.75v-5.75h5.75v-5.75h5.75v-17.24h5.75v-28.75h5.75v-28.74h5.75v-23h5.75v-34.49ZM940.41,1617.27h-5.75v-28.74h5.75v-5.75h34.49v11.5h5.75v5.75h-5.75v11.5h-5.75v5.75h-5.75v5.75h-22.99v-5.75Z"/>
    <path class="cls-1" d="M988.32,1657.51h-5.75v-11.5h28.75v-5.75h17.24v11.5h-5.75v23h-5.75v11.5h5.75v11.5h-5.75v11.5h-5.75v23h-5.75v28.74h-5.75v40.24h5.75v5.75h-57.49v-5.75h5.75v-5.75h5.75v-5.75h5.75v-17.24h5.75v-28.75h5.75v-28.74h5.75v-23h5.75v-34.49ZM1028.56,1686.26h-5.75v-11.5h5.75v11.5ZM1034.31,1669.01v5.75h-5.75v-5.75h5.75ZM1040.06,1657.51v5.75h-5.75v-5.75h5.75ZM1045.81,1651.76v5.75h-5.75v-5.75h5.75ZM1086.05,1657.51h-5.75v-11.5h-22.99v-5.75h40.24v5.75h5.75v5.75h5.75v11.5h5.75v40.24h-5.75v28.75h-5.75v22.99h-5.75v45.99h5.75v5.75h-57.49v-5.75h5.75v-5.75h5.75v-5.75h5.75v-22.99h5.75v-23h5.75v-28.74h5.75v-28.74h5.75v-28.75ZM1045.81,1651.76v-5.75h11.5v5.75h-11.5Z"/>
    <path class="cls-1" d="M1162.38,1875.98v-5.75h-28.75v-5.75h-11.5v-5.75h-11.5v-11.5h-5.75v-22.99h5.75v-11.5h11.5v-5.75h5.75v-5.75h11.5v-5.75h5.75v-11.5h5.75v-11.5h5.75v-5.75h5.75v11.5h5.75v5.75h45.99v5.75h22.99v5.75h11.5v11.5h5.75v23h-5.75v11.5h-5.75v11.5h-11.5v5.75h-5.75v5.75h-17.24v5.75h-28.75v5.75h-17.24ZM1139.38,1852.98h5.75v5.75h5.75v5.75h51.74v-5.75h11.5v-5.75h5.75v-5.75h5.75v-22.99h-11.5v-5.75h-34.5v-5.75h-22.99v-5.75h-5.75v-5.75h-5.75v5.75h-5.75v11.5h-5.75v28.74h5.75v5.75ZM1237.12,1749.5v5.75h-11.5v5.75h-11.5v5.75h-51.74v-5.75h-5.75v-5.75h-5.75v-5.75h-5.75v-11.5h-5.75v-40.24h5.75v-17.24h5.75v-5.75h5.75v-11.5h5.75v-5.75h5.75v-5.75h11.5v-5.75h11.5v-5.75h51.74v5.75h11.5v5.75h5.75v11.5h5.75v17.25h5.75v11.5h-5.75v23h-5.75v11.5h-5.75v11.5h-5.75v5.75h-5.75v5.75h-5.75ZM1173.88,1749.5h5.75v5.75h5.75v5.75h17.25v-5.75h5.75v-5.75h5.75v-5.75h5.75v-5.75h5.75v-11.5h5.75v-23h5.75v-45.99h-5.75v-5.75h-5.75v-5.75h-22.99v5.75h-5.75v5.75h-5.75v5.75h-5.75v11.5h-5.75v17.24h-5.75v28.75h-5.75v11.5h5.75v17.24ZM1277.36,1657.51v-5.75h-17.24v-5.75h11.5v-5.75h22.99v28.75h-5.75v-11.5h-11.5Z"/>
  </g>
</svg>